<?xml version="1.0" encoding="UTF-8" standalone="no"?>
<!-- Created with Inkscape (http://www.inkscape.org/) -->

<svg
   xmlns:dc="http://purl.org/dc/elements/1.1/"
   xmlns:cc="http://creativecommons.org/ns#"
   xmlns:rdf="http://www.w3.org/1999/02/22-rdf-syntax-ns#"
   xmlns:svg="http://www.w3.org/2000/svg"
   xmlns="http://www.w3.org/2000/svg"
   xmlns:sodipodi="http://sodipodi.sourceforge.net/DTD/sodipodi-0.dtd"
   xmlns:inkscape="http://www.inkscape.org/namespaces/inkscape"
   id="svg2"
   version="1.1"
   inkscape:version="0.48.3.1 r9886"
   width="48"
   height="48"
   sodipodi:docname="admin.svg">
  <metadata
     id="metadata8">
    <rdf:RDF>
      <cc:Work
         rdf:about="">
        <dc:format>image/svg+xml</dc:format>
        <dc:type
           rdf:resource="http://purl.org/dc/dcmitype/StillImage" />
        <dc:title />
      </cc:Work>
    </rdf:RDF>
  </metadata>
  <defs
     id="defs6" />
  <sodipodi:namedview
     pagecolor="#ffffff"
     bordercolor="#666666"
     borderopacity="1"
     objecttolerance="10"
     gridtolerance="10"
     guidetolerance="10"
     inkscape:pageopacity="0"
     inkscape:pageshadow="2"
     inkscape:window-width="1301"
     inkscape:window-height="744"
     id="namedview4"
     showgrid="false"
     inkscape:zoom="6.9532167"
     inkscape:cx="53.543898"
     inkscape:cy="34.394214"
     inkscape:window-x="65"
     inkscape:window-y="24"
     inkscape:window-maximized="1"
     inkscape:current-layer="svg2" />
  <rect
     style="fill:#aa87de;fill-opacity:0.84640521000000002;stroke:none"
     id="rect3888"
     width="48.898232"
     height="48.754414"
     x="-0.28763667"
     y="-0.035321828" />
  <rect
     style="fill:#ffffff;fill-opacity:1;stroke:#000000;stroke-width:0.09706678;stroke-miterlimit:4;stroke-opacity:1;stroke-dasharray:none"
     id="rect3807"
     width="21.595766"
     height="25.858843"
     x="-4.8798051"
     y="21.86591"
     transform="matrix(0.96302225,-0.26942186,0.26942186,0.96302225,0,0)" />
  <path
     style="fill:#602600;fill-opacity:1;stroke:#000000;stroke-width:0;stroke-linecap:butt;stroke-linejoin:miter;stroke-miterlimit:4;stroke-opacity:1;stroke-dasharray:none"
     d="M 35.115095,2.3432134 37.025637,3.6529 c 0,0 3.288549,-5.4174176 -1.910542,-1.3096866 z"
     id="path3011"
     inkscape:connector-curvature="0" />
  <path
     style="fill:#ff0000;fill-opacity:1;stroke:none;stroke-width:0.10000000000000001;stroke-linejoin:round;stroke-miterlimit:4;stroke-opacity:1;stroke-dasharray:none"
     id="path3821"
     d="M 15.561448,34.899142 C 15.430773,34.525566 15.158959,34.232756 14.882211,33.960357 14.609119,33.680448 14.284984,33.467972 13.942106,33.285021 13.605507,33.147036 13.271931,33.0029 12.939968,32.853984 12.615892,32.695333 12.321038,32.490465 12.040149,32.265682 11.751805,32.051788 11.507399,31.789219 11.263486,31.527999 11.031012,31.27543 10.777158,31.045917 10.516336,30.823462 10.281003,30.605494 10.019421,30.423237 9.7488349,30.252794 9.5075014,30.091848 9.2314512,30.002903 8.9815703,29.858881 8.6988971,29.691117 8.4574037,29.467725 8.2267685,29.235982 7.9722321,28.992806 7.7331354,28.735007 7.4757748,28.494742 7.189529,28.230769 6.8534966,28.031621 6.5183636,27.837198 6.2051636,27.66214 5.901387,27.473238 5.6160692,27.255592 5.3852917,27.084287 5.1171407,26.97692 4.8597957,26.853481 4.0908141,26.508009 4.3989112,26.326113 4.4197081,25.229515 c 0.2438999,-0.264941 0.5891693,-0.38152 0.9219229,-0.4914 0.4232992,-0.101017 0.8438164,-0.197878 1.2560529,-0.338853 0.3373235,-0.08002 0.6607917,-0.19197 0.9823618,-0.319939 0.4175136,-0.174819 0.830846,-0.359443 1.2473118,-0.536711 0.3948623,-0.143517 0.7922206,-0.279794 1.1968105,-0.393282 0.393904,-0.08473 0.791917,-0.132631 1.185386,-0.220789 0.30556,-0.07625 0.617964,-0.113157 0.931861,-0.129408 0.341109,-0.0123 0.682458,-0.0065 1.023686,-0.005 0.490257,0.01919 0.973874,-0.06186 1.455496,-0.140618 0.553041,-0.09597 1.099675,-0.213885 1.636638,-0.377781 0.483937,-0.130403 0.967406,-0.267908 1.456691,-0.377719 0.433444,-0.09878 0.852393,-0.248441 1.281954,-0.362233 0.391322,-0.102387 0.791315,-0.162702 1.186397,-0.246091 0.134982,-0.03209 0.271122,-0.05823 0.407699,-0.08235 0,0 0.02033,1.199875 0.02033,1.199875 l 0,0 c -0.135347,0.02239 -0.270298,0.04675 -0.404455,0.07558 -0.393829,0.07468 -0.7906,0.133803 -1.179042,0.235967 -0.430386,0.116289 -0.850657,0.268355 -1.28696,0.362241 -0.486349,0.107437 -0.967294,0.240905 -1.448219,0.36971 -0.542529,0.161363 -1.093824,0.28141 -1.651589,0.377659 -0.48797,0.08321 -0.977659,0.168095 -1.475037,0.154074 -0.339064,8.94e-4 -0.678287,0.0018 -1.017159,0.01396 -0.306976,0.01713 -0.612681,0.04936 -0.912334,0.121405 -0.391334,0.08591 -0.788092,0.129894 -1.178651,0.21803 -0.3993012,0.113747 -0.791998,0.248349 -1.1823397,0.389628 -0.4189725,0.174474 -0.831347,0.36427 -1.2485625,0.542866 -0.3224113,0.133699 -0.6506732,0.237926 -0.990179,0.319474 -0.4135555,0.133103 -0.8348514,0.227071 -1.2549774,0.335474 -0.2913736,0.103765 -0.6540489,0.207563 -0.8055452,0.501893 -0.00841,-0.369665 -0.015089,-0.739373 -0.025239,-1.108995 -7.291e-4,-0.02655 -0.011587,0.05448 -0.00303,0.07963 0.048311,0.141902 0.2531527,0.200606 0.3668178,0.261787 0.2635665,0.129127 0.540305,0.2355 0.7812948,0.406542 0.2776386,0.221441 0.5744834,0.412971 0.8851774,0.585114 0.3435278,0.194795 0.6839427,0.400386 0.98374,0.659322 0.2621979,0.236587 0.5007678,0.494833 0.7574774,0.736964 0.2214586,0.228201 0.4496605,0.453864 0.7244845,0.617892 0.2470935,0.153094 0.5268646,0.234585 0.7699382,0.396591 0.2748327,0.172901 0.5471937,0.349177 0.7847507,0.572928 0.263313,0.225508 0.525429,0.451299 0.759405,0.708194 0.244555,0.254076 0.473401,0.527 0.761623,0.734759 0.270009,0.224637 0.554241,0.428242 0.869231,0.586175 0.332624,0.153756 0.666971,0.302502 1.008841,0.434772 0.353342,0.183888 0.692579,0.394944 0.973908,0.680858 0.285065,0.274419 0.562628,0.563262 0.738248,0.922987 0,0 -0.150481,1.198495 -0.150481,1.198495 z"
     inkscape:connector-curvature="0" />
  <rect
     style="fill:#552200;fill-opacity:0.98692812;stroke:none"
     id="rect3009"
     width="2.0499287"
     height="38.326443"
     x="30.523758"
     y="-20.542517"
     transform="matrix(0.78614102,0.61804716,-0.56392793,0.825824,0,0)" />
  <rect
     style="fill:#cccccc;stroke:none"
     id="rect3823"
     width="7.267498"
     height="21.39348"
     x="23.650494"
     y="28.312906"
     transform="matrix(0.92529175,-0.37925608,0.37925608,0.92529175,0,0)" />
  <path
     sodipodi:type="arc"
     style="fill:#008000;stroke:#000000;stroke-width:0.1;stroke-linejoin:round;stroke-miterlimit:4;stroke-opacity:1;stroke-dasharray:none"
     id="path3825"
     sodipodi:cx="40.322033"
     sodipodi:cy="24.864407"
     sodipodi:rx="2.2881355"
     sodipodi:ry="2.0847459"
     d="m 42.610168,24.864407 a 2.2881355,2.0847459 0 1 1 -4.576271,0 2.2881355,2.0847459 0 1 1 4.576271,0 z"
     transform="matrix(0.92529175,-0.37925608,0.37925608,0.92529175,-9.6954768,11.053013)" />
  <path
     transform="matrix(0.92529175,-0.37925608,0.37925608,0.92529175,-7.8164273,15.503358)"
     sodipodi:type="arc"
     style="fill:#ff0000;stroke:#000000;stroke-width:0.1;stroke-linejoin:round;stroke-miterlimit:4;stroke-opacity:1;stroke-dasharray:none"
     id="path3825-1"
     sodipodi:cx="40.322033"
     sodipodi:cy="24.864407"
     sodipodi:rx="2.2881355"
     sodipodi:ry="2.0847459"
     d="m 42.610168,24.864407 a 2.2881355,2.0847459 0 1 1 -4.576271,0 2.2881355,2.0847459 0 1 1 4.576271,0 z" />
  <path
     transform="matrix(0.92529175,-0.37925608,0.37925608,0.92529175,-5.9404576,20.1473)"
     sodipodi:type="arc"
     style="fill:#ffff00;stroke:#000000;stroke-width:0.1;stroke-linejoin:round;stroke-miterlimit:4;stroke-opacity:1;stroke-dasharray:none"
     id="path3825-8"
     sodipodi:cx="40.322033"
     sodipodi:cy="24.864407"
     sodipodi:rx="2.2881355"
     sodipodi:ry="2.0847459"
     d="m 42.610168,24.864407 a 2.2881355,2.0847459 0 1 1 -4.576271,0 2.2881355,2.0847459 0 1 1 4.576271,0 z" />
  <path
     transform="matrix(0.92529175,-0.37925608,0.37925608,0.92529175,-4.0614085,24.597646)"
     sodipodi:type="arc"
     style="fill:#0000ff;stroke:#000000;stroke-width:0.1;stroke-linejoin:round;stroke-miterlimit:4;stroke-opacity:1;stroke-dasharray:none"
     id="path3825-1-8"
     sodipodi:cx="40.322033"
     sodipodi:cy="24.864407"
     sodipodi:rx="2.2881355"
     sodipodi:ry="2.0847459"
     d="m 42.610168,24.864407 a 2.2881355,2.0847459 0 1 1 -4.576271,0 2.2881355,2.0847459 0 1 1 4.576271,0 z" />
  <path
     style="fill:#0000ff;fill-opacity:1;stroke:none"
     id="path3872"
     d="m 9.910875,43.787525 c 0.390102,0.0086 0.780905,0.01763 1.170724,-0.002 0.08154,-0.01283 0.164399,-0.01906 0.244627,-0.03848 0.176404,-0.0427 0.378216,-0.130731 0.545846,-0.194495 0.281754,-0.107175 0.565467,-0.201485 0.853673,-0.289486 0.424581,-0.137668 0.861686,-0.229057 1.298339,-0.318207 0.426966,-0.119837 0.856975,-0.223744 1.289113,-0.32318 0.463393,-0.111531 0.891126,-0.331169 1.334928,-0.50035 0.406584,-0.146322 0.819227,-0.262908 1.247264,-0.323148 0.325979,-0.05808 0.651502,-0.121811 0.973603,-0.198765 0.291866,-0.07505 0.591239,-0.114196 0.888162,-0.163534 0.33147,-0.07883 0.665828,-0.145915 1.001108,-0.206599 0.329431,-0.06628 0.65653,-0.142607 0.986081,-0.208187 0.324555,-0.08128 0.649962,-0.155966 0.976492,-0.228693 0.410361,-0.08513 0.828299,-0.120415 1.240763,-0.194225 0.37768,-0.06021 0.752518,-0.13604 1.118289,-0.248311 0.324866,-0.08333 0.643027,-0.188184 0.961983,-0.291195 0,0 0.03708,1.195455 0.03708,1.195455 l 0,0 c -0.319507,0.101572 -0.639723,0.199422 -0.963825,0.28547 -0.370647,0.112424 -0.750122,0.184168 -1.132713,0.243041 -0.410945,0.07242 -0.827136,0.111714 -1.235168,0.200063 -0.327442,0.07479 -0.652988,0.155237 -0.979705,0.233055 -0.330211,0.06415 -0.657994,0.140168 -0.98815,0.204799 -0.336081,0.05965 -0.669311,0.134279 -1.001943,0.210591 -0.294128,0.05198 -0.591119,0.08815 -0.881044,0.161688 -0.326153,0.07463 -0.653828,0.144491 -0.984504,0.195958 -0.418292,0.05788 -0.823058,0.167852 -1.220616,0.310468 -0.449049,0.173313 -0.881269,0.398489 -1.351685,0.510063 -0.433307,0.09618 -0.863802,0.198616 -1.290993,0.319617 -0.431825,0.09328 -0.866024,0.179643 -1.288797,0.309485 -0.286599,0.08336 -0.565496,0.176572 -0.844111,0.283979 -0.190566,0.07346 -0.371337,0.15427 -0.570323,0.203725 -0.08443,0.02098 -0.171533,0.02917 -0.2573,0.04376 -0.392074,0.02311 -0.784744,0.0079 -1.177202,0.02229 0,0 0,-1.204612 0,-1.204612 z"
     inkscape:connector-curvature="0" />
  <path
     style="fill:#0000ff;fill-opacity:1;stroke:none"
     id="path3874"
     d="m 9.8077237,43.089393 c 0.5000883,-0.199425 1.0172933,-0.353596 1.5292453,-0.519463 0.656816,-0.180783 1.317563,-0.34638 1.977933,-0.513396 0.458895,-0.0863 0.903291,-0.228716 1.355943,-0.339263 0.344372,-0.07983 0.695152,-0.122502 1.043466,-0.17973 0.386169,-0.10471 0.784159,-0.145943 1.176477,-0.217423 0.320103,-0.04017 0.620175,-0.149262 0.920446,-0.259801 0.275692,-0.09888 0.559329,-0.165381 0.844253,-0.230357 0.315738,-0.07576 0.638739,-0.111525 0.954785,-0.185563 0.326515,-0.07399 0.650128,-0.160654 0.973756,-0.24638 0.272231,-0.06627 0.550657,-0.09655 0.829801,-0.112146 0.32195,-0.06969 0.619827,-0.126071 0.95083,-0.155303 0.456059,-0.03331 0.913493,-0.03981 1.370543,-0.04682 0.292037,0.0011 0.582006,0.0027 0.867511,-0.06401 0.244463,-0.0819 0.495239,-0.142892 0.742427,-0.216029 0.148295,-0.06046 0.074,-0.03019 0.222877,-0.09078 0,0 0.0459,1.19986 0.0459,1.19986 l 0,0 c -0.153522,0.06099 -0.07515,0.03079 -0.235172,0.09046 -0.250556,0.07008 -0.500763,0.13976 -0.749642,0.215055 -0.295211,0.06336 -0.591924,0.06329 -0.892923,0.05305 -0.453495,4.86e-4 -0.907682,0.0046 -1.359765,0.04396 -0.324388,0.03601 -0.637231,0.110466 -0.956373,0.171861 -0.270928,0.01287 -0.541803,0.03843 -0.805431,0.105622 -0.325152,0.084 -0.650372,0.168056 -0.977449,0.244158 -0.316534,0.07107 -0.638079,0.114366 -0.954237,0.187035 -0.279259,0.0669 -0.557601,0.136639 -0.829234,0.230842 -0.306227,0.114488 -0.616642,0.214234 -0.942545,0.256619 -0.393818,0.06424 -0.790744,0.110003 -1.177188,0.21461 -0.345221,0.05841 -0.691717,0.109253 -1.034706,0.180266 -0.451396,0.10955 -0.898132,0.236121 -1.355925,0.318842 -0.658998,0.160281 -1.31706,0.324991 -1.969575,0.510228 -0.509329,0.167439 -1.029113,0.319906 -1.5100743,0.559853 0,0 -0.05595,-1.205854 -0.05595,-1.205854 z"
     inkscape:connector-curvature="0" />
  <path
     style="fill:#ffff00;fill-opacity:1;stroke:none"
     id="path3876"
     d="m 8.776503,43.566413 c -0.2769586,0.218934 -0.4203301,0.503795 -0.5129321,0.836924 -0.012067,0.05942 -0.025764,0.11853 -0.036202,0.178256 -0.021023,0.120295 -0.030228,0.211889 -0.039021,0.333425 -0.00381,0.05262 -0.00861,0.210805 -0.00867,0.158045 -0.00115,-1.147674 -0.040551,-1.387848 0.022492,-0.944882 0.069792,0.210359 0.2672178,0.268513 0.464987,0.304118 0.2345421,0.02431 0.4735253,0.04474 0.7027758,-0.01876 0.1334234,-0.09393 0.2582012,-0.256432 0.2260002,-0.426333 -0.01619,2.126663 0.105128,1.384959 -0.03911,1.021715 -0.072874,-0.183535 -0.1644687,-0.357196 -0.2337431,-0.543015 -0.097504,-0.304122 -0.1497907,-0.509388 -0.4463036,-0.662518 -0.037256,-0.01249 -0.074512,-0.02498 -0.1117675,-0.03747 0,0 0.036884,-1.199433 0.036884,-1.199433 l 0,0 c 0.042708,0.0129 0.085416,0.02579 0.1281247,0.03869 0.3390208,0.14982 0.4415124,0.321408 0.537913,0.675819 0.051869,0.141287 0.097836,0.282769 0.1663655,0.417116 0.0017,0.0033 0.113389,0.207566 0.113549,0.210304 0.02479,0.423952 0.01954,0.849127 0.02931,1.27369 -0.05916,0.194023 -0.188422,0.350949 -0.3776605,0.431861 -0.2483453,0.05696 -0.5002092,0.04603 -0.7528156,0.02122 -0.2361225,-0.03885 -0.4629673,-0.106369 -0.6043622,-0.315136 -0.1832386,-0.546279 -0.080567,-1.465947 0.070869,-2.096676 0.1186384,-0.341627 0.2994681,-0.62985 0.5818804,-0.86196 0,0 0.08143,1.205003 0.08143,1.205003 z"
     inkscape:connector-curvature="0" />
  <path
     style="fill:#ffff00;fill-opacity:1;stroke:none"
     id="path3878"
     d="m 26.575987,40.039675 c -0.112019,0.292848 -0.198996,0.603861 -0.202186,0.91877 0.05874,-2.208567 -0.148643,-1.115093 0.11068,-0.824928 0.09834,0.110031 0.238296,0.146866 0.373246,0.187938 0.299867,0.06266 0.6116,0.08419 0.916789,0.05669 0.259329,-0.07982 0.274375,-0.333719 0.296038,-0.56723 -0.06114,2.054444 0.08394,1.105857 -0.06642,0.740075 -0.06746,-0.164125 -0.176708,-0.266397 -0.310273,-0.376098 -0.261989,-0.159658 -0.548416,-0.277061 -0.834853,-0.385347 -0.241443,-0.09139 -0.496841,-0.11996 -0.752664,-0.132907 -0.07061,-10e-4 -0.130534,-0.02335 -0.15887,0.04874 0,0 -0.08389,-1.207253 -0.08389,-1.207253 l 0,0 c 0.08653,-0.04386 0.151719,-0.06161 0.250331,-0.04383 0.267029,0.02005 0.535582,0.04352 0.788092,0.140173 0.297699,0.111316 0.592368,0.235378 0.870323,0.389925 0.114596,0.0838 0.182064,0.122945 0.275448,0.233372 0.396702,0.469103 0.185193,1.293613 0.194145,1.777578 -0.04984,0.28407 -0.146863,0.517959 -0.458194,0.579414 -0.319899,0.02082 -0.64534,0.0061 -0.959719,-0.05884 -0.922253,-0.255401 -0.616293,-0.679145 -0.630257,-1.740761 0.03576,-0.320359 0.120759,-0.633984 0.24202,-0.932652 0,0 0.140216,1.197184 0.140216,1.197184 z"
     inkscape:connector-curvature="0" />
  <rect
     style="fill:#ff0000;fill-opacity:1;stroke:none"
     id="rect3880"
     width="2.2006059"
     height="2.6631625"
     x="29.96414"
     y="16.818575"
     transform="matrix(0.81712463,0.57646105,-0.54267426,0.83994324,0,0)" />
</svg>
